<svg xmlns="http://www.w3.org/2000/svg" width="217.14" height="74.817" viewBox="0 0 217.14 74.817">
  <g id="Group_101" data-name="Group 101" transform="translate(-250 114)">
    <text id="CLEAN" transform="translate(250 -57)" fill="#6882ef" font-size="49" font-family="Raleway-Bold, Raleway" font-weight="700"><tspan x="0" y="0">CLEAN</tspan></text>
    <text id="it" transform="translate(405 -57)" fill="#ffd836" font-size="61" font-family="Raleway-BlackItalic, Raleway" font-weight="800" font-style="italic"><tspan x="0" y="0">it</tspan></text>
    <g id="Group_100" data-name="Group 100" transform="matrix(0.999, 0.035, -0.035, 0.999, 101.025, -152.849)">
      <g id="Group_98" data-name="Group 98" transform="translate(302.674 41.493)">
        <g id="Group_92" data-name="Group 92" transform="translate(49.717)">
          <path id="Path_373" data-name="Path 373" d="M405.451,45.485a2.981,2.981,0,0,0-1.863-3.836,2.968,2.968,0,0,0-3.735,1.783L390.235,70.54l4.392,2.076Z" transform="translate(-390.235 -41.493)" fill="#8098f9"/>
        </g>
        <path id="Path_374" data-name="Path 374" d="M405.334,43.2a2.956,2.956,0,0,0-1.745-1.539,3,3,0,0,0-.658-.135,2.991,2.991,0,0,1,.515.733,2.943,2.943,0,0,1,.118,2.3L392.739,71.691l-2.489-1.176-.015.041,4.392,2.076L405.451,45.5A2.938,2.938,0,0,0,405.334,43.2Z" transform="translate(-340.518 -41.509)" fill="#6882ef"/>
        <g id="Group_93" data-name="Group 93" transform="translate(22.615 32.972)">
          <path id="Path_375" data-name="Path 375" d="M346.308,111.824l3.565-3.367-.582,4.872,3.583,1.808,2.336-2.4-.522,3.317L374.8,126.2c1.014-1.994,4.212-8.768,4.117-14.665a4.515,4.515,0,0,1-1.209-.371l-23.378-11.05a4.577,4.577,0,0,1-.883-.554L342.5,109.9Z" transform="translate(-342.504 -99.562)" fill="#8098f9"/>
        </g>
        <g id="Group_94" data-name="Group 94" transform="translate(48.954 42.328)">
          <path id="Path_376" data-name="Path 376" d="M394.845,133.324c1.014-1.994,4.212-8.768,4.117-14.665a4.515,4.515,0,0,1-1.209-.371L393,116.041c-.1,5.762-3.124,12.18-4.107,14.113Z" transform="translate(-388.891 -116.041)" fill="#6882ef"/>
        </g>
        <g id="Group_95" data-name="Group 95" transform="translate(33.731 25.648)">
          <path id="Path_377" data-name="Path 377" d="M390.042,98.022,366.664,86.971a3.211,3.211,0,1,0-2.744,5.806L387.3,103.828a3.211,3.211,0,0,0,2.745-5.806Z" transform="translate(-362.08 -86.663)" fill="#8098f9"/>
        </g>
        <path id="Path_378" data-name="Path 378" d="M390.695,102.127l-5.373-2.54a3.21,3.21,0,0,1-3.726,5.085l-18-8.511a3.192,3.192,0,0,0,.982.721l23.377,11.051a3.211,3.211,0,0,0,2.745-5.806Z" transform="translate(-329.002 -65.12)" fill="#6882ef"/>
      </g>
    </g>
  </g>
</svg>
